<mxfile host="app.diagrams.net" modified="2022-08-17T03:47:27.647Z" agent="5.0 (Windows NT 10.0; Win64; x64) AppleWebKit/537.36 (KHTML, like Gecko) Chrome/95.0.4638.69 Safari/537.36" etag="IIUQ9yWQJvjfrxm6n6fv" version="20.2.4" type="github">
  <diagram id="C5RBs43oDa-KdzZeNtuy" name="Page-1">
    <mxGraphModel dx="1730" dy="967" grid="1" gridSize="10" guides="1" tooltips="1" connect="1" arrows="1" fold="1" page="1" pageScale="1" pageWidth="827" pageHeight="1169" math="0" shadow="0">
      <root>
        <mxCell id="WIyWlLk6GJQsqaUBKTNV-0" />
        <mxCell id="WIyWlLk6GJQsqaUBKTNV-1" parent="WIyWlLk6GJQsqaUBKTNV-0" />
        <mxCell id="WIyWlLk6GJQsqaUBKTNV-2" value="" style="rounded=0;html=1;jettySize=auto;orthogonalLoop=1;fontSize=11;endArrow=block;endFill=0;endSize=8;strokeWidth=1;shadow=0;labelBackgroundColor=none;edgeStyle=orthogonalEdgeStyle;" parent="WIyWlLk6GJQsqaUBKTNV-1" source="WIyWlLk6GJQsqaUBKTNV-3" target="WIyWlLk6GJQsqaUBKTNV-6" edge="1">
          <mxGeometry relative="1" as="geometry" />
        </mxCell>
        <mxCell id="WIyWlLk6GJQsqaUBKTNV-3" value="Lamp doesn&#39;t work" style="rounded=1;whiteSpace=wrap;html=1;fontSize=12;glass=0;strokeWidth=1;shadow=0;" parent="WIyWlLk6GJQsqaUBKTNV-1" vertex="1">
          <mxGeometry x="160" y="80" width="120" height="40" as="geometry" />
        </mxCell>
        <mxCell id="WIyWlLk6GJQsqaUBKTNV-4" value="Yes" style="rounded=0;html=1;jettySize=auto;orthogonalLoop=1;fontSize=11;endArrow=block;endFill=0;endSize=8;strokeWidth=1;shadow=0;labelBackgroundColor=none;edgeStyle=orthogonalEdgeStyle;" parent="WIyWlLk6GJQsqaUBKTNV-1" source="WIyWlLk6GJQsqaUBKTNV-6" target="WIyWlLk6GJQsqaUBKTNV-10" edge="1">
          <mxGeometry y="20" relative="1" as="geometry">
            <mxPoint as="offset" />
          </mxGeometry>
        </mxCell>
        <mxCell id="WIyWlLk6GJQsqaUBKTNV-5" value="No" style="edgeStyle=orthogonalEdgeStyle;rounded=0;html=1;jettySize=auto;orthogonalLoop=1;fontSize=11;endArrow=block;endFill=0;endSize=8;strokeWidth=1;shadow=0;labelBackgroundColor=none;" parent="WIyWlLk6GJQsqaUBKTNV-1" source="WIyWlLk6GJQsqaUBKTNV-6" target="WIyWlLk6GJQsqaUBKTNV-7" edge="1">
          <mxGeometry y="10" relative="1" as="geometry">
            <mxPoint as="offset" />
          </mxGeometry>
        </mxCell>
        <mxCell id="WIyWlLk6GJQsqaUBKTNV-6" value="Lamp&lt;br&gt;plugged in?" style="rhombus;whiteSpace=wrap;html=1;shadow=0;fontFamily=Helvetica;fontSize=12;align=center;strokeWidth=1;spacing=6;spacingTop=-4;" parent="WIyWlLk6GJQsqaUBKTNV-1" vertex="1">
          <mxGeometry x="170" y="170" width="100" height="80" as="geometry" />
        </mxCell>
        <mxCell id="WIyWlLk6GJQsqaUBKTNV-7" value="Plug in lamp" style="rounded=1;whiteSpace=wrap;html=1;fontSize=12;glass=0;strokeWidth=1;shadow=0;" parent="WIyWlLk6GJQsqaUBKTNV-1" vertex="1">
          <mxGeometry x="320" y="190" width="120" height="40" as="geometry" />
        </mxCell>
        <mxCell id="WIyWlLk6GJQsqaUBKTNV-8" value="No" style="rounded=0;html=1;jettySize=auto;orthogonalLoop=1;fontSize=11;endArrow=block;endFill=0;endSize=8;strokeWidth=1;shadow=0;labelBackgroundColor=none;edgeStyle=orthogonalEdgeStyle;" parent="WIyWlLk6GJQsqaUBKTNV-1" source="WIyWlLk6GJQsqaUBKTNV-10" target="WIyWlLk6GJQsqaUBKTNV-11" edge="1">
          <mxGeometry x="0.3333" y="20" relative="1" as="geometry">
            <mxPoint as="offset" />
          </mxGeometry>
        </mxCell>
        <mxCell id="WIyWlLk6GJQsqaUBKTNV-9" value="Yes" style="edgeStyle=orthogonalEdgeStyle;rounded=0;html=1;jettySize=auto;orthogonalLoop=1;fontSize=11;endArrow=block;endFill=0;endSize=8;strokeWidth=1;shadow=0;labelBackgroundColor=none;" parent="WIyWlLk6GJQsqaUBKTNV-1" source="WIyWlLk6GJQsqaUBKTNV-10" target="WIyWlLk6GJQsqaUBKTNV-12" edge="1">
          <mxGeometry y="10" relative="1" as="geometry">
            <mxPoint as="offset" />
          </mxGeometry>
        </mxCell>
        <mxCell id="WIyWlLk6GJQsqaUBKTNV-10" value="Bulb&lt;br&gt;burned out?" style="rhombus;whiteSpace=wrap;html=1;shadow=0;fontFamily=Helvetica;fontSize=12;align=center;strokeWidth=1;spacing=6;spacingTop=-4;" parent="WIyWlLk6GJQsqaUBKTNV-1" vertex="1">
          <mxGeometry x="170" y="290" width="100" height="80" as="geometry" />
        </mxCell>
        <mxCell id="WIyWlLk6GJQsqaUBKTNV-11" value="Repair Lamp" style="rounded=1;whiteSpace=wrap;html=1;fontSize=12;glass=0;strokeWidth=1;shadow=0;" parent="WIyWlLk6GJQsqaUBKTNV-1" vertex="1">
          <mxGeometry x="160" y="430" width="120" height="40" as="geometry" />
        </mxCell>
        <mxCell id="WIyWlLk6GJQsqaUBKTNV-12" value="Replace Bulb" style="rounded=1;whiteSpace=wrap;html=1;fontSize=12;glass=0;strokeWidth=1;shadow=0;" parent="WIyWlLk6GJQsqaUBKTNV-1" vertex="1">
          <mxGeometry x="320" y="310" width="120" height="40" as="geometry" />
        </mxCell>
        <mxCell id="8RdJDKPA5o4pGH98ljpe-0" value="" style="shape=image;verticalLabelPosition=bottom;labelBackgroundColor=default;verticalAlign=top;aspect=fixed;imageAspect=0;image=data:image/png,iVBORw0KGgoAAAANSUhEUgAAAm4AAAAZCAYAAACIEKJDAAAgAElEQVR4Aey9d1RVyb7vu0zEldciBxFUFMWcA+accwYkKmBOCAIqmHOOYAAVRJLkJElAFBXMoVu72w679z7n3nHffWO8N94/nzdqwgK07bD77H3PPuPoGGtMXFWzZtWvas36zO/vVzVlOp2eL58vNvgyBr6Mgf8TY0AmC+DL54sNvoyB/8pjwB+Z6QpkvtuR+Xz5fGSDgB3IpmxFJvP/w/c5/sQ/2f+Jm/WXa3yBgi9j4MsYEGPgy4T9X3nC/lL3L+NXjIEv4PYRrLWE1y/g9t94otPq0Gi0aH9NDZXSdb+e/mvnffn+P11d1qo1aLT/ImNbq0Gt1v2qTbRaDRrNb6Rrfjv9c7D+ZeL7Aj9fxsB/1TEgVKRGJemL4vZ5tbEJ3PyQycTn95W3PyG48UVx+xeDGa1ajc7Gme49euFiq/3FJK9RqdE7dKGnuxvtrbVo/1Ug4F/Mjp+Dht/6TqtRo1Zr/nn21GpRq/V06DGEnh30v+jX36rbPyvNqlNfBnVzQK3U/OIhQKu3xK5LX/p1sUX1i3QdWgsbnNz60KujNSrlbzxkfDIuvkza/1Un7S/1/u87dgV8eCMzWYe+fRjOCl9kJl9cpZ9V3SRwC5U8C20sI+jdPgiZzOc3Ae5fGtz0FlZYWVmi/+RG/s+alP4ly9Vb/Gb71Ro9Tv3mczTrPoVx4YzsYI5CbVBndKjUlnQZ5UdcyWNuH/Sjj50cpUaPhaUNVpaWv6qc/ENs8Tt1/4dc4z9jbAjVSe9C34m7Wb8ilL4d7VGrtX+nLS1+M79Wo0Fr3w+/g6lUVWWzZqi+Rb8a+vefePxM32m1OjpM20X1ozLOb5mNq4UKdQt1Ta2zpteykzx8VMDBwPE4aVWoDQ8JWi1KCydGr7lC/YMMti0cgp1G9Ydg9OPJzxeZTHy+QMGft8F/Yxu2EuPGG5nMS5oYW0n//zKW/vxY+pztxPgKwWXCdQ7nvaYkORt/F29kRl/A7VfBbfIWZLJVmI/JpqL+JXknYxnpEExrCeB+aeN/WXBTy+X0C7pCbdZuBjla/fNUjf+Mif8PXVO4PjswaUU4IdPc0Wl/6X7SarXYdp/NmfInFJ5Zi4erDdoWE6lwWbkM9eXavTrS9vnQr4Ol5MbSaKxYFveSl/F+2CnUv1BO/uNApUOlsKLPtEC2hszHvb3+own+P17+PxFY/kjfaDWo9J0YMOUwoaujGOjqiOYPg5sOjdoSl15zGTdiPE42egQQfWQTrRqFvgcrzhfxqOgiPiO7YK37JM8fqeefyaPVYWnfF++wnfiMdEKp+vi6WgsH+s8OJb3qPtej5tBBrWgBZzq0Vs6MXL6XovsVnAgei51K2ZQutdO2C1PXnqWqtoDtCwZgpVKh+Z16Nk8qK7Fx38twj2jcrVf85hNp8zm/vOn9904LwqbXPoYP3YGb1X83Gza47Zyn3CDyQCZR0zc1uqa+jJF/3G9C2DgEd59crpU95058Gr4jwrBq80Vx+yy0iVi3loqbJpLhy9JIuPsV1UmJzO+x7rPw9h8GN+Gmk5uZYWJiiomJGeafgIBwJzWlm8pRfBIf03C+ONcUEzM5ysYJUIBb/5AE6vL2MdgAbhqNVJb5L9wwvz6Rq5UKzKS6mWImF5NIy4lIh1ohx7Sx7mai7i0VAnMzzOQK5OZmmBiL89XNk4xGg8LcDHO5AnOzX2u7yGMutc1UtF31sSojVJVm25g3pet1WhTmJrRp68ya1Dpytg7GtJ0xxsbmyJVadPqG9mq1jsw9XM6jtEgGWSpQtIA2CfRs3AiMvUdF3CrcNeYoNI3naazwuvKWt9d8sWhnhJGRCSZmyk/gSotKLsfE2AQjQ9sNthETrVa0zVRKNzac35iuUZohk8kZHXqT2qy9DHUwoVVrI+kaWr0FWrUKMzMzzM1F35hgbCzGzceuN8O4MTY2wdjEDHmj7fQ6nWRTcb4YM6bmSuRmphibCiVR16ROatRKzExNEeebmitQtbTN74DCRxD1mbxatRKFwhS53ARzhQLNp2NKJUepUqFWyVEozFGqmuFYq5FjZqzEbdxu1viG4Gpjjpm5KYqmPDrU5irclx2jqiqFgEFOqFWaRrCzQKtSYmpmjlwuxq2wnSlyhSG9sX9VKsxNRZoJJsIuLX9zaiWmJnLk0rhvtK30e7JAr1VjZmyE3HoMF+vec3lZe2SythgZm7coQ4dCaUmfuTEUlaezdpwzCnmL62s1mCtsGRV0lruFsSweYI9SjFmDHcU1lB2YHXWLe+l7GNfVGlXL+hnytTg2TCpiQliLx4Y7nD+fxtphwV/A7e9WHRtsOCq0jIunbxE8OOS/Gbg0gJu7fzFJBY9IXhn+Rb39u8fQ70GuD+36J3Kx7AXZJxOY0ymENga335cYtz8W49ZuLXYjkrlW9ZKs/WcZY9swblvC9X8I3ETQtKVTTyYuDmT95i1sXBPInJHuWDVOslqVCp2jO+MXBLB+w0aCvWcxsJNVw1O8Xo9I13foy5QlK6X0lZ4z6NfJGqVKy6fgphFxXHaujF/ky7zRvbDVNk+GTZNCi5u9+E6oIE59JuC5cj2b1q9m6ZRBtLfSNQCKFKxvgeuQGfiv2ijVfbZHd6y0WkmV0ts6M2KGJ/Omjmea52q2bFrFonE9sdbq0Gq0WLbvxsTZi5k+eRJz/daxef0K5nh0Rd84CQkg1dh0YtgMb9Zs3MRq3/kMdbVG2ejGFG3X2ndn7Dx/1m7YxCrf+Qxzs0OlVKOy7MK4BQFs3LqH5Adf8Sj9CFs2byVs40pmDndDrxJxVRr07WcQW1vHmcWdMVe2BNIGFcfe3ZukR1XsmuKAqbw5XSvA7dIbvrq5nrGzVhIeGU7wwtF0stU3BJ5LtrGkq8c8QrZEEBG6hoWje2AtbKPVS+3XWTszdHYAmyO2ExWxhYA5w2mv16LWWtNl6EI2Ru7mUv4TPrws4/zB7URGRbHRezT2KhXWXQYzf9FSpk6fi++6bURuCWbmkI5oGtUdAScaB3cmLA4mNCKSTcFLGdld2EaDStWBYTPnsWCZP+s2bMBn6ggmL9/IpsB59HO2kNzAwrbWXTxYuGIT27aFsmL+OLraalvAx6+D/q+NJcP3Wp0l9m4zmDw5kEmT/Bk7ZCQdbC0b4U2H3sqJbn1nMbD3cPoM9WTSBE8G93DDUthOZ4WD6wTGTAxikX8C4ZvOMH9GABMn+jNm8MAGVU2rxlzhTkhcMXlHltLJunlhgohVdOg1Fs/F8xg7eR6BG7YRsSGQSf07oG4EemE7y46DmOO3nvCIbaxZPpO+HSxQCNtq1Gi7jMVvxTxGe8xnTfh2Ijb6M6GvCzqFHLXjEDzXbiVm/yUe/PDvPLx1kPDIncSE+uDRzQlt40OVAFe1iwfbE4u4vm02TvIWqptOj1YpR9N9NmfzCjjuOxJbhbL5gUekK8zQDwwk5W42EVN7YdkErZ/vF5lsOTLZEmSylQyLuE9qSh5hQ0QQ72JksmWN8SANE0orKa9wgxncYUuRyTw/ytN8AxQuHZFXlCE+4m9RbuPk1CqQhmuL80UdxNFQ3ufcteJcQ3kinyhTnCduvAHIJLecOM/wvSGv4f/+jXkMk6M4T5wv0g3X/Vzsi6Gt4miooyi7ZR2bbTgq5iEZSZls7CfSf2nDpvYb7PAPOYprGepmsM3n2iJsKNoh2iw+n/aJsM2v2bCxvI/cn8KGBjuL6y6ns1c+CVn3uRYQ9omNDHb/taOhDYbyRD0NdRXfNfZzk71EfUSbDW0ReT/JI9XVkE/Ur2U/t6hH09hpaUPxtzi3RT7p709tKPKJun8un6Etoo6GejTUs9mNLOpsaOev1K+p7PVMOvGKmqws1o3eSCvpPHFdw6rSSGSLwpAtDUO2aCuyxeHIloYjW7y14XvPqI/hxjsC2RKRNxTZwq3IlmxD5vVJHqFaeYl8W5EtFPlCG68RgWz5J1uPGMpryrcV2dLP5FsehWxZeEMdDeUti/xlecsjG9vSWD9RlqjHknCpnq2aVo9GIfNsbGdTeY3XDfx0OxDRV6sZEl7LncJi9i7YhtEn/fznwU0oaZbdWBBxhfK7d0i7Ec/1lCJqKjPYMsEFpVKJwqYXy3ffoKK8gJTERDKKq8iLC2dUB42kSCgdhrDm5G2qynJIupFEZlElmWc34dFBjZmpeQvFzVJ6yu89N5o7D4rZOb8XFkrVb7r4hFvGrr8n5/OqqMi9SUJSNmUVBRwJGE17CzUqjQWdx6zi+p0qSm4ncj29iKrSW2ya4o6lWomlS3+ic7/nddFlondGcyj2NlUVqWyc4IpGqcCu9xTOlX3gUeY5du7cxbGredwrTcB/sANqtRqFZRdmbjpLfmEON2IvcDWlkPzrOxnfUYtKpFv3wivmOhUVhaQk3iA1r5LC67uY4qrC2KI3SzcfJuHmbapefsube1lcv3GTW1ePEzKzH3q5GqFIWQ5YT+GzPEL66CRgMcCFOIr2O4/fSemjmyxzVSBvVNukNOEqvfyO//G0gLiEeBKzq3j79RMurZmAk14l2cZ14mYyH73kUVk2WXdqeVlXQOTMnlhp1Si19gz2OkL1q5dUF2SQnn2Xl18/5XLQEHRaG/pM38r17ALuPf+e//nTG8oLs8jKyiQ+ZgGOpqY4j19F7pv/i4e5lzh06Djx2Q95cS8ezz4C6lUobPqx4lg29fU15GdlUVL7moeZh5jmqqS1cR/CUmt5kH2WPefyef3kNgdiDpF+t4pL68diZWKKqtMU9qff41FpJolJGZRW3+NGzBK6WQjl7fNw0NJ2v/W3VmeFU/9gfHwPE7wxh+gNexnU2RaVWiz60GJh35OZIaVErtnLjBlrmbvsDBvXn2RCTxc0Wmtcenmz1Pc4IRsyiNqWRFDAIXx9D7J4ykRstVq0GgWm9uPYn13M+aBROGhVTSqwysyUbov38+CbnylJOc+hQ6dIKqyjrvgUs7vpkCuVKB092Hq1jBd1d8nNzqeq7jlFF9Yz2F6JQm6GatJB3v3bt5RePsvBgye4kVvJg+yTzOltiZnjJHbE3iS3oJpv/uf/zbePCsnIyqfgxh5mD+yE1qB0C9VM7473oRRunw6it6X5x+NPo8LEajBbEnK5ETmXTrqPwU6nUWBiP4FDeXc4F+iB/e88hMlsjrH+UAHn4irJrfmGly/fcC+7nIsXy7h8oYAzmw9h305Alg8yx6P4bIgjyOscM2YlcjC2lNiT6WxeFIN1azGhGSZOb2TyLXSfdJmwg4Wcv1DI0egEFg/agKk0CYl8Pqjdj7FgRSIRPscYuiSFoxdLuHA8ldXTt2Fp0jghSfl9aWO2ka7T4ok4XMSF2BJiz2QT5X+QHlYi2Fhc2wcTy20M98vg0IqD9JmWwLbDRcSez2G77356Wa9syCdN0g31lLsdwzs0k+Pn7nDueBrr5++iq9ZwXX9krVfQyv0iMXtimTb6HL5rMjl1uYQze67hOSoMuQC/ViuQ2R1n05EiyYZ5D77l1Ys3VGWVc0GyYT6nNh7Apk0ArZom4E8n+f/I//1op93GwIWJ7DpRzMW4O1w4kUHokhiczEW/CduI8n2QtV2D3eBzrN2Vx9kLRZzYdY0lgzaibmfoNx9MbCIZ4ZfOwRWHGDAniZiTd4g7l8U2zz100wsbGgBYnBOC/ag4Nu0t4Pz5XLbN38uSsDvEpdT8HeAmylmBzGgnS3Ylstw3keh9Oexbf5Yls0+zYEseJ/dcY2GPVS3gyJtWFtvxWJpIzPFiLp7JJnrVKUY4iva2tKUfpg4xjPNL4cCZEuLi7nDmUAprZkWhby3yGdrtRzuLSAYvSWL3qWIuxorxkMHmRdE4CiWrKZ8PsnZrsR98nrUxeZw5X8ypAzcJGBuGhbG4tsE2frQyXk+nKQlEHini/JkcwubtYoLnTdYFnmVmz9WN/SL6JhBFt2P4bM3i5Plizh6+xcrJUTiZG+rWoj3mR9lf8470nUfxsBIAYsjjj8wkiFaBZ/HKyGH5+SxibpexNz6RhccTWZxUzon0DOaH72qGI89ttFpzhtHnctiVW8WF/FJ2XL7G8PU7kHm1ALJlkZhuPM/E2AIOFlYTV1zF6cx8Vh09gc4nqkV5ERivOcmwMznsza8m9k4153IK2XTqNHbCXWkAQq9tyAL24LgrmfXpFZwtrOTk7Rx89x5BFyAgsREcvSJoHbiPLodvE5VTyYWCUkKPn2H8+Xw2xV5nyrbdyASICrhbvgPltgT8b5ZyoqiKM5m5BB44gcOKSGS+O5BN/XQfN29kfW4SW1xL0o6TdJMePprt/KfBTatSoO42g+M5pVzdNJ2OFpbYufRm2rJA5g3viMLUFKcJ68mpyGfHkuE42drTfaQv16secdrbHaO2xnRZsJ/qqjTWTOmLo60DvSaFkFpZw5FlPTFpY0I/yVW6l4G2eiw7j2Xv7Xuk7V2Ii1qOqqXb7hOlrQFOLJm2p5QXubsY5doea5uOzN6ZSn3eMca52aDSO+J15h73EzfS38kWa8c+BMfd5X5cCJ1tNJISGHX7JXdO+dNNJ0eu78nGm3XcO7YQG7US256TOFn8jFs75kn1UdsNJSb/FcU7xqE2M8du8FLiC8s4ETwORwtL2rtP5VTZU64H98PMyASnCRvIrSggepkHHezs6DJkAXEVz7m+ZjBycy1WNrbY2PRna3odeTsn4WDngIO9PdZWjQsKNCqsPcIpe5KGXzeLX9hDgFvH6fupfHCF+R1UTW5SA7h5Xn3PX2rPMaObAzord/zPVfGu6CAjXC1Q6p0IvPqar3IiGNzBDhvH/mxIfsbb5I10tdOgsO1O4KWHPE8PY6ClDkuHLoxZEsLKmf2w1OuxsLLGUt+RudHpPMo/xtS+7bGxc8Te1hq13JwOY1aS++I91zZOxl4px9J1Glee/JWCrUMxMzHDqu98DsZeJHSBBy529nQfE0Lem2+5FtgNWasebEquJGvvDDq4epH1dSZLOndi4bEcSi6H4NqqFb3XpPL982SWDOqEhd6RUYHHqHmQx6pRDpi1dOt9Ztz8FrQZ0vQWon32uHlsZlXQLgZ1tmkGN7seTFuZzZrFC3HSKVHpuzHBP51NC6dipdchFtzodU70nbyftQEb6Olij6WlHdZW4ns9OrUCsw5TOZabzynfEdhrmh9QVGZmdJ2/iwdvn3LUezg2SiUOfReQWPcdyWv60651O7ouO8XLl0Vsnt4fB1snBs+Poux5HfvnuWJiZIxq3C5e/fSCc4v7oDM3w3rQcpIfPeXahgnYmKuxsnPAxX0e8U/eS2PVwsoBRwc7rCxaLKYQqqDWjaW7k7l9cS39bX4Jbmb6/qyLyyVp1yK6WH4KbkrMrEaxO7OUuDWjcdC1CFH4TJ/IbI6z7lAB5+MqyZPA7W0DuMWVcSW2kLNbDmLXVkxK4maXzOXyV7ytrORYaBJbwlLZfbKCgrsPOeMZid5U5PNBZhbF2OA8kkuecSetjNi4cm7kvuR+QSHBg9ejaSsmLE9sp97ixJ0f+bG8hJ0RyYRFpHPoaj01lRVETgvH3lhMTr7IjDbhOi2Fa3dfU5FRxqXYO8QmPKTy8XOSI08ywr6hfvJO+/BP+Rv/+3EVh2NS2Lo1hZjTD7hT8YDYLcforxbl+SFrHYRJ59PEpD6nvKCapCslXEmpp6TkHrGhx+lt3qjktQmi9dRS3vz4mjuX89izOZHN27I4m1RLXnoh4WPXN4CC7TE2HS1ssKEEbq+pzqrgYlwZly/mc3LjQawlUGieHD4GjD/7vQ8yEwGrOaRUvqAspZTYi6VcuvGImrpnXFqxi66axj5pt5HOkxM5l/eUoqRiTh7L52ziY0pz8lk/MRyr1kIR8kbpdpigtL/yvx/d5WB0CmFhKey58JCyivucWXOQnnKRzw9Z29VoB8ZzrvRrHhZXk3gxn6OHMjid+pLqvGou+/1RxU3Ax0pk5qe58N133D5ynY3hBVzLus/tuFTWrk1lX+Jjqs6domNrAb9+yNR7WLq7nPSc+6TGFXD8TDkJaQ/JuXyd8TYBtDEoaIoY5kWWkV3xlMLkEi5cLCf+Vh01Dx9xcn4YVqbC7mK8RjI6KI+0uy8oTSnl4sVSriQ94n7dU2L9o+mkbsxntJnuM1OIK3rJ3awKLsWWkJD9gvtl5WyfFYlj03jdQIcJwh33jocFd7l8Np+jx3KIr/gL7wsK2DlNxP8tR9Z6FaoeF9iX/pSiW6VcOJnHqau15OWUcWjlflyNhBInrt0IaM7x3HzxnLN+u3AzNqSJdD9kpiG0Dk4k7ufvuZ2ZwfqkKpJq60ktymNtQiGHKp9RXpBAB18BO1HIQi7gnVnL7do6UorLOZ5fw/WaerKKbzNmdSSthZoloCj4PItSH5Dz9CUFd6u5UHyfhOrn1Lx6yrHjh9FKsBWBbMUpJly9S8azN5RUVXOxuIYrd59R8+YFFy6cokNQo3Lnf5heJ/K58vgNFTX3uVR8j4QHb3nwpIZth49hHxDRoPAFHKTTkXxuvPyGR49ruVRQzrHcEhKe/cy3D0sJO7i/QSH02402MpkDNa8oqrrH+bxyTpU9oaC2hn2xF+i4MgLZ5E/BzQeZ9iTbMx6RdvoS4xRCNRV2bPj8aXDTqZWYtx9O6NUS7mWcIHj+RAa6OUkTt4ivUpop6eN5gNKs80zrZYuZuQKtXTe2Jj4iLWIMpjIzhq9P4H7KLvo7W6BQqlDrrHDu2oPOTraozMwbwK3gCGO6d2d6eBI1haeZ5arG/JOAacOE2nzUodU6sfLaU8r3TkZhpkQl3LZ2LnTr1gU7Kwv0tt0JT3tG+pbhmJgoMDc2YcDqBOoyd9G/vQV6537suHWf61tGozKWIzfVMONAGU/jg7HVKLHtPYUzWeUc9hmAwkSBUmGN14U6ak8tRGkip8uUdWTkpBE0rjMarRVWNi4Exj2m4sgslG3M6O15gDKDbeRidZ4eR9cedHWxl9QyrQhQV7qxIfUxOdtGoFWJ/a9abOXRBG7pvwNuVz8Lbl5XvuJtUiC2ZgrM2pkzaHU8byouMaGHLWprd2KKf6BkxyhMjOSYtTNi8ObbfFt2jMHOlsj1LsyILuDDmyL2BS1g9AA37K2EyteoZmnVmLazZNK2ZGqzDzCqs1aKfRQrEAW4OY8LIf9eJZFz3FGYKlHrXAjL/YnaI9MxN1Ohs7KjvZMTdjY2WFlZYd9pOCfKP5CzbSgymTubb5VxK3oGnTstJuVVInM6uLHwcAaFl1fhKjNm6pFq3qVvpZujDRZaLc6j/LhdWcO+pb2RmzWDUPN4+XtVOK3ktu04ZB3BQbs/Bjf7nswISMZ30hA0cgUqhYa+c+MJX74Uayk2UYNSYYH7hN2s9luNm4NQYIXru9GV3QRuBZ8FN7eFe6m9n4nPMBfk5kp09u7syH5P8Z5JmMpMGBmeztuiIwx21mNuao5l17GcL3lJwrphyNu2QzluNy9/KCC4q9iyQ4G5fV98dh9n1/IxOMoVUjyeZYfJxD3+miu+XTAW/SOpiS1s1BLcLvw6uK03gJvFb4Db6j8Abm1D0FisQ62OZOGhWrKzSzg4PwyVZj3W1huw0gTTRrqhLUfW8wbnil7zJCWV5ZIC4oeJw16WXn7P36qTGW+zitYyT1p1Oc+6o2UknUpgerdN2NhsxW1UApee/0zNbqGSCRVjGdYTEjlU+C3P0pKZ7hJM29YrkXc4wd7KH6k5eY7xLkLh8URmf4AZex/zob4Qr87rsdSvw8JxJ9NXpRMReIThzkJ180buvBfva9/z4/1CVg7djKZdAK2UO/A6+5yyzAK2j1srTZitFZvos6We715UsHVGNF3s12Pd6RCBpx9zp7iCA5OFIuIrAV7riUXUv39L9vbjDLEWEBSI9ejr7M15w+ubF3CR+dJK2NByPRp1FEuPPyY3o5Bdc7Y221ArVrA1TwyGCeI/fvRC5nqe9ZfreV6QxiyH1Wh0G7DptIcFodlELdtFVwthay+MXU8QePY5X5VlMs99I3rNOqzcTrG7+B0lpy4xq3NDPoXrQQKSvueHewX49tuAQsCSdi+rrr/mbmoWG6T4R2/a6sIZsfs1Pz0pZe24KJwt12Pb/Sirzj/lcdU9Lvv+PeC2ApnZSU6+eU9CQDjWqt14n73L9fOXGK7diItvGS9f5jDZWICbDxbzSsirekji9tP0t16NXBfOgAVp3Hj6nky/rajaCVt7IRtwk7MFdZTFxjPWahUq7UYc3Q/iGZFN5NxtWEqKpCcyt0uEXa+nPiuF6XbChuux7bSPRcKGS3bSSddgm1Z2+5kRWkruzTSW9t+Kg80m2vc5z+GqH6iNvcScrmK8emHU4QDzT7zmh4cF+A7cir3VBtr3P0905jteF+aybdJGKV8bXTgeUc/44UkJwSO34aBZjdrxAEGx9RRm5BPeFGvaCG7db5L5so7jS6Pp1Fo8XBjGlHCVBtM66DpnPnxH/PnD6IMuEFjykPjcJAYHH8bt0n1efF3CBL8oWnlFYn36PiUvnhCfdI2+a3ehCDnGkDNF3Hz7LekXDmPut73B/RhdwKX6FxTlpzFqzS5UIQfpEHEZ7+RSIo4dRRe4HdmyMGTb0tlZ9YKH93KZum43mlUHsAu9yJKkEqJOn8IpZKfkHm21/hJzk+6RXZ7Poqgj2K89hNOOWxx7+RO1hbeYGhotuXaNtlxiacHXfP+qAu8dh7FbcwCnncnsrv3A24fFbNi/T3LZtll9ijGpr/nhbTWBMUexC96DemMca0oFyJWyee8uZBPEdiAGdVLYzAeZ+VFCbz4m7WIC0/XCpW2wZcCf4TbDPm46Ka7Gqd8Mws9mUFX7mGfPn1GZsp9ZPWwwN1HSz+sgpbfPMbWPPQqFGr1jN7ZcryU9YjxmMjM8NiRQczOaAR2tGuPONMjNG4L0G1aVXubp1x948/IV37x7Rfr2KehN5R/Fy4jJV8TaqQTYGMBBJ9umABMAACAASURBVMCtA8HXnlKye1JTcLRGpZQAUgCEhV1PItKekrJ5OGbmaoSaMWDVVeoy9zDQqRHcku9zffMY1KZKlOY6Zh4s4+nVoGZwyyzniM9ACVLVKlu8Lz7mwUkBbgq6TAgm5fHPvH1yn+rqe9yrqaGutoZbUVNQtTWnr7BNhrCNXcOiBK1YkNBy8YGY0LuzUYBbxCj0nwbXS+AWRumTdPy7/5rito+7D66ywPmXipvX5be8vR6ArUKN3FTBkDXxvC6PY7wEbj3ZU/wDRVEjMTVTozQzZfCmdL4tO85QF2spWN7KZTArDqZS+/Id3//0M9/VZbBhQlf0EoBokZvaMCXiFrU5BxnTVd8UX9YEblWVRM3pidJchdayM+G5P/Lg8DTMTeToXIYRcvAmVfXPeP7sOS9ef83/+tsH0kIbwG3TrXJuxcykc+clpL5KYq6zG4uOCHALobPMlGmHKvjrv/87X799zevXr3nz7gN/rb/NxhnuKM1/Pzby94FOh1qlo9OQ9YR8Dtz8BbgNRSMeRlQ6+s1rCW4C+qzoOXEPa/zW0M3xkxW3ErhN4ahQ3Px+qbhJ4FadiY9HR5RyFfr2Pdie+TXFeyZjJjNl9LYM3uQfYnBnK5QKJTbdx3G26AXX13ugaAK3PILc7JsWVegtLLHQNyhqAiBtOk4l7vE7rvq7fV6hNIDbnmRu/y64LaTL58DNejS7M0uI+yPgJt3QhIqyhrHba0hNySdylFicICaGlu4YAW5JxJU+JF1yLzTG7bRbhXZ2ITU1OSx0WI2pzId21hF07xlJJ724GS5qjKFbzbT4H3l37SJDOojA/aVYT7rJkcwn3Nl3ABMpXkcoccFMOP2epzcTWdB3TUMMk+1+pu16xHfPSljRazN2EkyKeCA/ZG1WYiS5cpcjd9mHz9X3fHPrHPYiTfp44uJTyq3MKi76RUiAZ2IZxeIbP/Fd/Cnam4gbumirJ/YzMziXVU/25u0NN/fWQQhwe/bNfbZ7bMFCqqMnMotdjA4t425mIkOabNRgw4m7H5KelMWWYQImRbmiHi0njeYJouVk8ef+9kLW+TzrLtXzoiSLxa4b0MtX0kqK5QqgrVEQbSSlbzm2YxPYk/6S8q3bGvtE2G8JnTfVUZ6SxYYJAiY8kXc5REDCe76+eQabJhv60XdTDbmZpRyaL7ZW8MbMLhrf5B95f+k4NpKrVbR1Bb0Ci0i5c58E/78H3FY2gNvr15xcvBWbtjtZejSf40fP06vdJjouLeDhmwJmmwpwC2TInpfU3LqFT19h44UNH9NwZl36wDexx7EzbwAtWd8kTuU9oSL+BtOc1qKUFDbR7kCMjYNoLSlzXsi6xhJ6rZ4nBRks6LQOrVwAmMgnbLiSNq0FsPvRTr0ZZ/ed9HES1xXxiyKPD4MPvOFhWiqBw4QC64mm1yk2pn7D67OHpd+DBAqyEEbvrqMkM4/tk4WtvZE77cH/5ve8PbEXYylWT8Sazkc3M4eLqTUkBovx2uI32ARuMXRuI+xtGEstwe0dx08cwsL/ND4FFRzOuE53v0O4nb9L7fsypvtH0cpzB8Nuv6O2Mocl23Yim7kJ2ZxNyIJPsaD0B94XXcVCuDdFHNrOPGLrXlBSfJvJG/aiFArb0q3Ilm3HOGAnrcRrtjzDkIWnsb3yBY8fFDB38z40KwSohSJbup12/jtpI/J5R9Ju1WE6Rpym54adyOZuRrYgFNnsSIbnfEN9dR7eO/chW7AV/Y6bhN37hud5cRhJsXcRyBbuYlzmSypqSthyYB+yhWEoQ+NYWfk9b3Iu0FrE6i3YgmzGRixP3iW++iGXrx5HNm7zJ7/BRnBLriPt4jVm/OPATY/e0hobaytUcnPMlFZ0GjCHk8UvuLN/Buo2pvTy3EdpzkWm9bJBrKpU23QjPPkRqdtGY9LKlGHr4nmQtpsBTnppdaZab0+f4WMZ1M0RlamZpLjVF59m1rBhLIxMoqbsCkt7WWGuaF6lJt4UYO3Yme7dOmNnYdjUU4CbIysSnlJxYCpyEwUKuRxLl96MHjkYFztLdLZuhKU9I2OrByZG5tKqzYFrrlGfGUNfg+L2Z8HNVI7r5DWk56SzZoo7tnZOdHDqgEtnN1yd7VCaKujtuZ8yg23MFNJ+a92HjMOjtzNaaYGDADd3NqU9JjtsOGqFSlJmmuBUq8aiRxDZz0rYPNjioxg2CWa1Opw8wimsu01ADxVmTXu7icUFVvw2uHWTFLfS6NEYtzPDtK0RQ0Kz+K7sCAOdrdHoLLCxtUWnNMPYTI2t6wgiM7/mL/mhdLHUo9U1gNvUyBQeZO5jRCc1ZnJR/xaK22fBbQptW1kxNTyZp7XJrBjvTnvH9nTsPpazld+RHf774CYUt8lHqnh3O5K+XVxwdnbB2aUzXbt2xcnOulnZ0ulRqjQYK7S/sN3vgZtQQ5UKNR0HryUkaBcDO4oYTBUajUaKcZvxu+BmTc+Je1ntu4qu9iLeU90EUTqNElOrkcSkl3B1/TgcdM17nYmHC7cFe6h9lEfAMGfMjc1Q2/YgJv8b7uyeiInMmBFhaXx15xhDnPWS29mi6zgulL0ifu1QzH8F3Fq2twHcpnGp7msueXemnYkClaqF0itcmRoVZla9CDh5m4yj/rhrzT921Utxeh5E3swnfssMXDSfKG5qOabO0zlVVMxJr6HYikUTn3GRGurVcPMXYLGeCTvvk5YqlCkRTySAwzAxiGMDuF0qqyE56hhdJIgRcWAradt+D7Pm7qWzIggjaaJZgcJuB8NmnMMn8BIB/pdZufI6J0r/wg+JsQx2agS3yckcSamneMce2krniesEM/bYO57fusnCfkIh80bWbiMuE5K4WPyS8sy7XD2Xx/7I6wTO20s365DGc5cj77gPnyvveX/lFNaSe1e0ywsnz2KS0quIWxkltcPUOhrflB95c+IQtgoxyYt8y7CefItjtx6TH7VLUnaES7UB3O6ydfAW9OJJXdjFZAM2Pfczc8pObJugrMGGU/Y+JCM5m7CRn7NhS3v+I/4W20CEM8jzNjdKnlOWUUHcqSx2hV3Fe1o0HZQraC3Z1ReHcdfYX/AdzxNTpP5YseIyAX6XiEz+lg8V+WybJtxJy5B3PUTg1Xd8fekE+qZ4QD96r7tH3u1SjojJUUCHw25WpP7A62MHsTAz2NAPN+98rt7+exYnCLs1g9vppWHYGkWz7FgBJ49doI/xJjotK+TR63xmmQmbBTHywAsqimqI33eN5b5ifF0iZEs6Z+78yP9Iv4CLBF4+yOTRzNhcTHrJU4pTyzh/7DY7NsSxaFwU1kb+tJL6TthwG8N9s0gqfUFpRhmxp7KICb2C55RonBSBtG6C70DaabbSd+IZvPwvERBwGX/fK+zP/sC7zFR8hzeAm77vGbamfsPLQ3sb1WrRxkAGhT8k91YeO6ZskIBP0WEfwbd/5uvM26wLuUJg4GX8fWLZcv4JNZW1pG2OaXiAMIwxCdwec2zpb4PbyZOHsAw4g2/BXY5l3KBHwGG6Xaik9l0Z0/yjkHnFMDbna6ofPeJSehbLL6YSEJvK6sQ7nK//iX+rSsJRBPWLRQlBZ5lzs5qM+pcUVdZwLqeY7ddSWLDvJFYCAoXbdXkEssATjL5Uzs3615RU3yc2t4ToG2l4HjqNw4odtPIWsWvi2tsxXnWM/ocS8RbXjUsl4GI6Bx7+yDf381gavQ/Z/DAsdt4kquYbnt4+j0w6VwDjDoamvKC4soRQCdy2od56mTX3f+ZdTRGrL6UTGJeG/4VbbCl6Te2zepISzyAb+xlwM2tW3GZY/IMUN7Glg0UXDwLDd7N20RjcXJxw6TaciNSnVBydi76dEbYjQ0gvL+FY8BTcXDoxcMZmMh7c5/ACV4zameA8fSflNXnsWDoKV2dXPBZHUfTwPgcXdWuKcavP3csAsdt/hxHsSL1H4ZkAuluIrS+E60aHzsqFuTtTKc28ILkllY1bI2i1FoyNyOdV+UnmDnDDyaUvvieKeZF3iDFdrFDq7FlwqJzHWTFMcHfBqetowpPvU3naj47WavTO/dnxJ8FNxLhZ9VvAhcwiTq+bTCdbO5x7jCVo+z5CJnZGYWqGnbBNRSknV0+nm0sn+k0OIfXRK+KD+iOXVCEtKlUnVt16SvUZb9w7d6ZzRxccbCwbXZJatNYeHCh/wa0Ng1CbfuwCbJiAp3P+Xh3nfdyRmzSn/za42aHQOeJ57gnfVhxmSs9OuHQbz678tzy/GoyrjUZaLTtjw1GOhC5hgKsz7Tt0xzfuKX8tjqB7E7hZMC40kWf3buA9pgcdO3WmY3ubhhg34Sr9LLhNpk0rRxbuz+d51Tnm9LFBo3eg/6zN3Hn9gcytvwduq+jaWkZX/wTePUnGd2R3HOxdGDIrmD0xm5nUU6xYbnRJ6i0Z1M+N9aNcmdjZ+pOtUFq4BX8BFJZY2zpjZ+NCj1FbWR1ygBE9umJr54yNhf4PgJtQqvV0HxfDhpAYBrt1wc7OGXsbm8YtMzSYm3VgyZE87iaso5eNpqluUozbvGhqvnpP4raF9OnciYEzwyj7+lviA3ti1MYIl7kHefK6ir3eY+jS0Y2Jgce5//I+O6Z1kLZuUY0XrtKPFTcDIImjGDfWzmM5X/cz+Tun0tG5M64dnbCxtGhyhWuUSvTdpnE8r4zzq8dhY6b4SAVXmcuxHuxHYnkBMfMHYCFvHnviN6s0Naf95DAKq9NYNbIrOrFK+hd2bu6Dvxfc4sruc2v7cVw/CugVT//iIyaoAHR9z7H6cCVZufe5eb2ca9cqSEyspvjZz/ycdJGBvwC3vY3AJybmEMYff8ezZAO4Nca5icD6YRdYG5PP+auVpBa8pP7JMxLDTzDMrjHG7VfBragB3FZ8Am4nD2PXBG6e2Ey5xbGUx+RHfgbchoRiIYGbqKOAWtFeAXIGAPt7wU3kb2xbUxmGsv6e43Jk5pvpMvEKofsLibteTUbxK57VP+Ji4G66aBti3BzHxLOv7Ge+r60l6WYVyclV3LpVRdKNShL3XGBKzwboaAa3k1g0gZs/fdYLcCvh8KIGxU2AW6AAt+MHsZTArUFZ7LY8n/jMfy64jdj3jIqHX/GgqIbEpCqSb1WRfLOS63GFnFu3FwvxFgFpLC6ntW4bA+ZeZ/uRO1xNuk92ySuePKjh8Lzwxhg3YWsBeaF0m3KFrQeKuHS9mtvFr3j6+CHnfGPopBJ5fDHveJD5kWVkFTyQxvX163e5lnCX/Pq/8pfcFJY3Km66PqcJFeB2fD/tpHqIvl7BsO2PKEg1gNtyFB32EpL1N354/Jj0lGpuSn1Szc2kKhKPJRIyUcB0C8W2SyLpL+o56RWNa9uWMW4fK25/BNzGZH1F9at31Dx6zI27j0iueszNyofcuFPBmSvn0PrvaFh4sGwbrVefYPCpLHbk3CO+qp7cJ2+pf/mI/cJVKhQ4sbpULHYIOoL7kQy2ZVVyuaKOzLqvePr2KafOnaHDSgFekchDL7PoVg1ZD+u5Wf6A6+W1XCt7SMFXf+MvD3JZZFDcdiYTee9bnmZfpLW0CCEK2ZKdjEh7SUmVAdzCUYdeYs2Dv/Hjm2ekVj4iufIRt0Rb7j4kKTuLwMNHkE0QY7bh3tTwe/VBpjxOeMpjUs/HM0X7jwI38bofu54s3RFP+b17lBTlU3jnLpUFl1k50llSERQWrszYcJr88gpKiooorSjn5gF/+tqqpZWVSmtx/lVK75ZTXHiHsopSEnYvp4+dWorPGbAuhbdlRxjmKBQNHV0mbyb3YTUn/IdhK7aMEG45m66EJH/P//fTPfYv7oncrPHpXUxA3aYRc72Y6opiCorvUnnnJuHzB2KnU0sxZU4DFnMsvZzqskIKS6uoyDyLj0dn9CoVlh0HsDfrGWnh41GZKlCY65h74gHvbq6RXKV2facTV1TL6YDBja5SO/wT3vDiwlK0ShUKXQdG+8ZwM7eQvKxMsnOLyEs6zMK+9g2rSi1cmb7uFPnldyXblFTcJe3kGoZ10DatfNSq9fT1Okrpw4dUlJVz93Ysq6d1w7wxwF6rtcRjVSJPa5PwG+yAmakCtc4QRK5DY9GemVHZ1JWdY667JaZmDdsyCHDzTfyRb9OCsFOoJEVy+IYbfKhNYFIve+RKHR2G+BBb8oSX9Q94UPeSZxXXWDnaFQvR71LA/wkqX33Fs4c13HtQz+sX5Rz1GohF40axGoUSh2G+xItA8VdPefzwAZk7p6ISq0onrqWk7hE7F/RCKWLOLF3ZXvrvPDs9E5N2ClxG+nH5Th31DyrJv32LhMvnuPvyJwq2eyCT9SD8di3Z++bQxdWLnA8ZLHTpxrKTBVReX4+7iRFyh6FsuJBLTfVdyiqqqK29R+rhIAa2b9gSRMTiWdk4cnzrNP7fCA+29rT6A3GTDQ8KeksXPBbGsm7tFTaG5bN79x22brrK2jVxzOznJIHb7KBMAqcORwCOWqmj/6Jktvt7N8a4Cde+CmvXmSwOSmTzpmusWxuHz2SPps2TNUo5DqM2kvugitOBI7CUy6Ux0aC4xVB1v470lJukFdzl2dffcT85ktFipbZajdK6D36HMqh7Vk9t7UOePH1I8m5P3K2UqBRmqCYe4t2/lbOmm0OzytcSmsR2N5bOzN2Vx9fffUV93TOepu9nSt/2KMRrqlRKzDUdWRB9i3uFF1nQy6phb8HGMkTd5VY9CTqTT9WtPYxz1TdsRSKl6yR1Xuk4nIiblZRdWEe/9rrf3WOvGdzWMTG6hrSUfKIkV6mAipaqW6OrtBHcunwEbgbQEPk3M+dIPUXllRxdEIZcctUF0tZkE3Pjf+D99dhmV6lQ3FKF4vbb4Naq7UqMTYMxlq4p3El+tFJHsfjsa16UFbBjlpjgPDFz2cfyq9/wza3ztJdu1KI+XnTyKSU1q5JY/0ZXqdV2liX9xPuLx3E0E2Aj2uqJ3fQ0TmfUkbt1Z8Nk3lJx+wjcDO1teWwEt30PuZ2cxRYP4U4T5bacMAz5/ZG1WYXaOpSOLpvQGX8ujyHvbx39aW0UjKnJStpIW2MI2wRiareHoJsf+FB0iyX91kk2sB17TXKVloXtkNyN7YxW0q7tCozla9CpVmFm1AC/CqG4xQvF7dfArUFxM7ePwT/5J96dO4KVsahjA8T2DCgiKf8+1/6kq/T3FDfhKh229xWVN1IJ8hDKVQDt2q2kXbsgTJXrsFAFNcYT+tPGZBVm0mrPBrewUOt0bsfYmvsTf828xGD7hr32Wv3Chiswd9zH6tTv+bEgibk9hct+DQP9i7hV94q01dvRG62gTRths2DGHHnDo9R0AjwE/C7DrMtR/K+847usBPqrG8BZZrYDn9iXPMrPJXKSqLc3Cqe9BNz6npdHD2AlD6JNmxVSnxiZrUalXoNSAuIW/W95kbgnr7m6Zi99FH8C3N43KG6tPHcyIvMdNRW5+MTsR+a5nXZ+O2nnH41p0F70QTsxbLXRJmAX5gLihHt0figyz2gsI64R8egv/PXeLfquiUHmFUkr/xjMAnbQynNrg7ty6U7kG+NYV/MTP9VmMS1sN7L5exh25R7pb15z89IJtH7baSNi6bx2MSH3PU+q8vEUituCUOTbEggu+4b39zLoIxY2eIoFEGcJKP2a+gd32CRi3BZuQ7UljuCq73mZHYc2IJq2vjtp57sDo8DdqIN3oxSxdVM+XZywHJljLAdyH5J6+AJDjf5RixOk2DKx/UFnBo6ewqw5c5k9YwrD+3TGUtOwIafYy0xr7UJfj4nMnDWbqeOG0tXBomnDTSnd1pUBoyZL6VPGDMbV3gKVqmGvNHu3wYz16IODeNoXrwCyak+fERPw6CN2km90i+qtcO7pwfjRQ+jqaNhPq+FpXaPWYNOpH6Mnz2T2zOmMGtAVG73Yp61hEhZHx26DmTB9NrNnTGaoewf0YksGrdiPy56eQ8YwuHvD/lVajR6XPqMYN8hNCni3sHOm/7BR9HV1kPY1ExDlOmAsY/p3QiftdaZBY+mI++BxTJ81l5mTx9K3sx0awx53GjUaa2d6D5vAjFlzmDZ+ON2dLKW2NysgOjSWLvQfNZlZc+Yxf8YE+ncV2400qkairg79CT5TzLNHOewNnISrVfNrhsRiBsvOo9mWcJen91IIXzQMJ/GaIq0FroMmMH5wVyw0Yid/LQ7CDiMHSXuSifZr1Hrauw9nypyFLJg7nRG9XKR2C+gRb2cQO+j3HD6ZuQsXs2jhXCZ79MZB3+zC1um0qHW2dOk/mlnzF7F48SJmDHeT4hGtnLrhMWoUPVzsGmBFb0MPj8mM6esi9bNKa03HXh5Mn7eIRfNmMKpfV/oMm4RHD0eUSlu6Dx3F0F4uWFu7MnT8EDpa2dKp73BGDOqGrUaL9G7W9j0YMXkOCxcuYPq4wXS2s5DizRpUJT0OnbtRFTORaq/u9BKvY2qKj2xWepr7ocV3eltc3CcwcOAk+vcbR98+Y+nffxIDBkzErb0Negs7XLoMpUsHR+ltF8Jedh0H08PVFYsmQNKh0Vnj0HEgffpNZOCAifTu0lEaNw3X1KJQ2zMy6Az36u+RfGw9ozrpkJuaImLcHlSms3L2eMZMnsO8GePp29m2oW2NeyPq7N0YMn4m8xcsYPpY0Xbx6jMdOjFenHozfpIHbja//roz0f+Wjt0ZNXUui5YsZen0kXRpby0tUrDuOZOY+AJqa7KJmtNb2pbH8OYDjdYCp8FLOZpWwcOyG6wa1wWt0uAG1SFeidV1bCAXCx5Qm3uGJYOc0PyO2ibs0QxuqxgVWUNGbjnHFm3FxDgEpXIVCpMVjdtY/FFwi2J57FMKcnPZNETAiz+t2q7GovMhwvJ/5MONT1ylvwtu3rS12Ea/mZdZ732QLharUZqHYGK0moFhj6jILyRmntjsdRlmzntZLhYnVOewtNdmLJUhmKijWHT8CWW5xeye1jBhtlVvYcSu13yozmRx/1Cs5MGYKCOYFlnJ7YJqzi4Q+ZoXJzz75i5b/xC4rWFsTC1Z2SUcmPexDRvsbJiEfTHrcoxlu+6SejWTDWPWN7rtDOl/9OiDkdMexiy4xMp5u3HWhGBuFoK5YiNjDr7hZV4q3oNEPNVSzHudZfXFp9RduYCbJghToyBMVJvpP/syy2fuooeNUKm8+WPg5omRRQSTj7/jx7u3meO+Ca1pEKb6GJYceEhVdQ1X/q7FCX/cVSpeU9Tet4qi7GL2ecWgbxtIW6NVWLhEM8ErHp/hGzBtI+zng1nXo8zzusjSiTtwUIZgahKM2jaS2ee+5UP2VTwchTvbm3bO+5iwOI7AObtwEjY0D8FctZkJR77mbW4yi3oLcNvI6LVl3H78iBPTVkku0FZtgjC3jiHwxnteZ6XhJ7lKvZCpI+i/soz7X70hbUcsi2adYvHqdOLKPvB1fg7h0uIET9pZRjFx/yu+ybrOyA5rkbdbgZHZetxGn2HxguOMc/10I+xo1uZ+Q8mFOGa5iv4yPFj9QcWtEdxae0XgfKmOstq7RJ8+jc5vBwLQLLecY9K5dLxj9mEkYtK8IjAPj2fh+WQW7z+F3coYTANi0Gw4xbyiD3y4n86gtTHSXnFGmy8y5UwK/sfO0j44BrMVMShWHWJS7rd8XZvLbLF9x/xDTEysJftVHYcP7aL18u208o1Bse4swXc/8LYmj2XR+5EtDkMWcpIh8bXUfvsVqbeSWXj0GkuuFnPl2Y+8ry1m/b6GxQnG684wLest7+/fZuiGPZgH7MQocD/d9yex9OQVRm/bhWzSLxcniLjc1PJqLq3bj7UU9tH8m/szqxM+esm8ACqlQoG5uRy5XIFC2XKRgIiH0UpB0iJNLlf+4unacL6ULuK4WgThC2VCLGpocqOICVahlDbobfpObLSrUiJXNANLywlXbNyrUIhri7qJWKIWk7B0rkpKk9JbTiJa8dqmhmsZypOuo2zcJV6rldJb7vquFnvXfbRLvAhEVzaW/8t6S7Zpka7StASfxnpqG+wrN5djLuxngLZGCBD20zn2YNbag5yIWY2Hs6LFOy3Fa7M0WLoMYNm20xzdspTeDqIP9NJedHJDWyQIV0k2bLaPCMBXIl3XXIGipW0kl5roi4Z+F29AEPZvPtdQd+EWVEpjQxofhuuJt04oWo4FYWtxjcb2axuuLc4RZYu3CohrKdRa9HqdZFORV+ybppCL6+qkMSDGntbwVgnR73JxvnhLwMdvhRAw1WvUEP66YyynhtkiN7hPm8Dq4zFi6H/DUbyVQaX65afhvZwCesX1mvtSoxHxfc3/byhH9I2quZxP08X7UC3s6T0liEMXLhAwxEJ6w4fbon08fpCD7zAnTIxMJfsY3jZiqJ/Y48/QdnPxu2i5d53Yf1G8QeR32ioeqprKaLSxWC3uNCmUhPPRLB7eBUtRxxa/J43emh7zd5BwKowZ/ZzRaVrcC8TvxdIJD9+9XDm0lnHuDogHq5a/Y0P9Pz02A4UfTrMzOJP9nKr0QqK2JLF1UwJrp4Rh3BjgLuudTHxVLenRJ+j6WcVNKEch9PbN5eqdZxRfzSBkyRkWel5m3d5C0h79O/8jJY7BjYsThGvyxO1nlO/a95GrdMLpb3mTfovF/UWMmycy611M2Hafp69fkHwgmdAN19kYUUBq9VtKz15hrruY4Lwwd9mDd8IP/KXyPnHn0tm89hpbjz2gvO41WQfPM96mUUVsG4Ki33USat5SkZTH3vBEwg5VkXP3GbePX2KcXrhBxcKHIFpPvsObH6uJGNbSVdp8k2+2n/jOD+f5WVzMfUZFSgFRW24Stime1ZNCadvkDhU28sV5TjoXnv0/8NdXVO4SiqNhEhblNORpULGEkvXpx6DkedOq4wn8Tj7maX0dCbuS2LjhBlt23iHn0VcU7T7OQAcBz97ITMPp65lD9oOnJO+7zqqVV1kTWUz2w9dkRJ9ktINQhrxQuB1mdHEeTgAADwBJREFU5Y1v+RB/CssWrtK+mx5QnFPOcbEBqijPeC3Wk26T8+w9VTdy2LnhGut2ZBNX9C1vKmuIDzC8OUG069P6G/4v2iE+AtxOcfb9V5z3CsPOKBrvU0WcPXWRviab6exdzNP3hcwxC2iIZ7Q9wZYrteRnlHA89AqBwTeJOVND+cN6zszaiLm0WMKbNr0vE33rGY/u1nBh+w3WbbhJ5IFyCuvekLlpN+1VAn68aNX5FMHn6njy+BFXYxLZuCGRrTEl5D3+isLoI/SRoDaQDuPi2Z/7igeZeWzyPseixbEERWZxrfpn/pafhp+kAIq2BWJqGc2c/fcornlDfd0bik/FE33tFcWJOURNETC9HFnbteiHJ5F0/wW3jyezOeQKQZtyuVb8ksKrt/DtYXD5GsZbIF1XVlNx797/3961/9WUrvF90cUYmuhypChqIrkUUjTKrVDGYIYUuu3SRZFUuklK7oYxxmVcwkwNQiKTS6FUtGsiM9XIZcI453PO5/wN3/N53rVWe+1tlxmGE7N+WJ+91trf9bzP87zP2u93P+8Ne6I3YaCcyiL/8sQtthDfPm/Hvj3bYRm5D5HlNdhz4QeMitwB50O1aHpSiTkRWVDSMh+rvkdG5T22AsGXhWexLL8MeVfuoLL1Z+zeuQXGbFZpBpRZ57Cp9lc03PsJ+0+dR8L3PyLrQh2u3n+Iku++gVU0TWJIgyL1ByRUNONu6z3knylF4velSDt7C2UPHuNS0WGMiM+GLCAbQ7ZfwPaGNtTdvoHE/T8gYG8Rlp+6jsKW/+C/DZc44kYL7S7NxgcJ+7HgQiOutT7CnfsPcLWsGNlVD3GjsgLJNMaNJi1EbMY/NpWh6Nf7KL54EavzixFbWInCpjZcLi9F8LocyGYQceP9RJ8meYg78StqThcjdiJlpMXv3mvNKu26cdP98ZWu36C/WJbQHOYWljDjiYvY37TTA634b2Fhofd7MfbvcE7jH+fNm4Tq6DHw698PvUXko1vZz3bx4CYBmZubwaRXLzjOSUVpyREs8hjMliR56/qaW8LCnDLgOhMWeCJI69RZmPNZWT3k0MzCki0ZxLK2er7XZ4+GeIRDZpQG96CzOFTWDHVjG+pvNuJq1kb0Yl1CYZB9fBDrD//I1piyY2O8hAZF/BkGmWEqxi4owp7ie7ilbsaN4ivYHLoB/pmNuJi3G6OtiWgtRT/Pw0jaUYEDMeu1Jie4p9zGmW2H4OtEmQ6OpBj1y4JP4lWcvNqMW+pW3L75E4p2HoXf8AR+5h43OSE0/zF+++4QPBeVYP+5JlRXNaAgdy+m2IsnC9APdRTMPI9h3WE1yqtbUFNejb2rv4KntdBYUndmNOSeRThddgGq0UkwZbqIbdU95yYLeIaeQ/7lZtQ3tqGhqgFl6XkwZCRIwIfCyGEnluRV43zBBSR5kZ1Cdyl9xsHSLhMjxuTA1WU9XHSOMS7pGNA7umP8VJ/Bm7Fw3Q2UVLaiTt2C2ut1OL5hHzysaOKG0CiFQf5BEobNO42vTzfh5q1mVF2swq6YrXDqR+SOcGHoZZeH+Xm3cCFnG0w7iJsKQ5dexDdfnUXSDFqDjCeOihVwCizB/vP3UFN7FwUZe7EsqQS5Wy8ibz43IFxhnIgho9ZjtI4NZJOraxachybhI9pFw3gr0kqqkeaXDHODTPivOYW05F0YapCIgbOLcOLcSUwxjuxYmsbQbjsWplegqKIFdTVNKD1yDitnpsC4w4+cr81c92DZjlpcqmmFur4FVZeqcSB1F4b3Jlkan5vYb0VgbiXOV7ZCrW5BTcVtHM3ZCzfLGN6HYZApE2DrdRR5BXdQdbsVteU12B2ZizlralGw6Sg+H0N/NDT+ZgT3w1WwMKWYioR7RgMun72Edf58RpdhY2HpfRw5+fWoqGlFbUUdDq/dh6kOFK/kZyFm6FMFWZ+tiD/WDHXVdXyp2oghfePQk+4bxUAefQSZ9Q1I3boFfSO+xryTZUg+fgQOEVsxZFcZCm+VwouIG63RtiQdRin5CCq6hTN321D3SzPOl1/G8i07YCTeYWFxFiyyCxD7YyMuNz+EuvU+qurV2Ft4DI5RWVDQ5ASStzgLH6UewZJiNUp/fgB1axuqGxuRX1QA17j16CFMYlBtgf3mYmy++QuqW9pQ06jGroP7MOfEHZwoOYPZmRsho10USCbbiSEDspgtsKAuz4BsTDzTjIqa60ilrtLFa9lMVVlYLqw2lyDvRhOuNbeh9k4jDp4ogHcyLTic1dFVKjdcAUvbXHyx4w7q79Zjd0gu7BTiLmfO16+dcdP3Qyvde4Mk7Q82dlIddF0Hpqb92L65L2QJu7l/WYaaZrAK6751c33/ijh8oWFg3QY05oMOGrQrNETcGlqsMaIGRYuIiBsXvoFhxE6QQz+O1AjRNdcYydmWV5Qx4MvQkkf36LsIaLYGIj1IjiCTPjUTIui8Y1YpZYu0yudkadtKjTY9T2WRLE2Z2jjCULlCI69rq+61rp68fVoNMD1DfqDvdGXTgsPbEHewET89/xeePH6GxzrH70/VyPRKQX9+XJlGluCbzmwh3cgeMY70ENtGGHqeqyfmC1Y3pCenq6ZO6Dm6J8gjPws4ej4OHzoeQ2HrM7Q9fobftOz4HU+fPkJdWQnm9aHnBH+QTEFPQTfSmQ6xrwW8UDaVS8+JMXROsskeASf4RhenK0/AiX1D5/r8R1i6L4pX+TIoesTAkI2/i4ZcnozPdt1DxZlSpE0TZ3kEmYKO+soV6xoMmd1uLN/XhKaHbbj09VHMMKcMaBRk4Wu5bka2+wBtK5XBkyDaEioDssCMF7e8YltipXHPdbXlFW2jRVtnUTcmHUv0bGVFREsX98KWVzSzNIPbaovJS4ds6VpuLTjChmR1jK8j8qZQ5cAwgsbf0bi7bfji0n3cqCnHqo2bOOJGBI/NVhXL5PWj2ag0O3YWTU6IgZHLUXx77REetDTiW5p00pt8L65fzs8ScfsbNHx/ReMpyeiaCEr+eXP+0TR01FUmbiDoXPee7nV3woSilz1NTmhHO3XhsOVA9Omn7153sysWvfsmwsomBQNtkmFtkwJr6xTY2CSzY6D1KvQxjNazqK+uHbrXb992eY84mA0gG5KZDRo7UmBjnYT+FivRk3XFk2769NN37/9vl/a7oqsPbXm1EoM+2YfgkIMIDj6I4BWXca7hEa7sOYzPBgsEU/c53Wt9ttO9ELabyMi5BUhIPIrP7SjLTcRNtFUVIzTv8HXoWiiiNsE27wRCDhQhZP8phHx3E6VtT3D54kn4rV6r2R6rK1tpPTqeuBm7H8eXufn41ClONDSD/Kl9SMRNIm78MhRvruGVSI3k29eJAeFHy9goBD2UlHWgH7EIKBUq9DTksgjCv9LuhwnldeayFiYOG6A61IQ7e3fDkg1Qj4CRkYAR7ArXY9efwXD/0pUKQQ4nl/xm3FEWj1G+IsYwBEq2BRU18CrI5WEwMhAySnQvAkaGQn2JyjISslJ0rxN99GCUrN67lqOLIVuFWBHK0o/h5JLOhgbBzBYuM8bZZcjs0jScJFe/nD+K0djeuRwO07PLsvRj6B3RtV1XjkIWAhObVMza+QiPn/yOJ+3P8O+nzbh5JB9zR65iwwIU+uQYatvOlUX1rrFdc0760fvKv7O0p+r7RNyCM2CcsAezy9rR/vw5njz7J9rbH6L8yln4p2+CUuhO7Yq00XdE3NisUnpvBH9xdavxpbZ/JeImETeJuEkx0K1jgBpU0z5BWB06BL6enjDsEQ4iJe6jfLA2xgaWfQMgl6sYJil0MHwnfgIDHuNBmCgeI+MxYYPhI2CU4fAYNR2Z0TawIDk8JpkwHrwcZTgmjBYwgS/BDIRFXxEmfDCme3jBwCCMEbgJo6YhLXwATHpzZfXtE4SUcDsOo+QwE12mIjNqIMxNA6GQq9CBcfeCQWcYE07OtJdg1oTbYaq7F3r00JSVsWwQK4t82JfkqOwwdbwG4+k6FYQxMw1kfuYwtpgy3rtDjqfrFKSLMP1MgrAmQhszqRPMZDeNnEljpyA9UlMWk6OyhRjjpRdjh8luk5k+BspwECYt0hZmH3E6m5kEITViELzHTWaxwTDjJiMtwhZmJoSJAIexfQkmkD3jRXKU4UwWyUxlcoJ4OZ1hBrEyyM+kF+lHepIcqg/Sf43KDmQzw5gGMl8QhggSh/HGGpXtCxjymxYmQgezbBDI/wKG6o7kmPZayLJjfT5YgNWhAzB+pDfkcq4swqSobFlMCPpQHFA8CHKmu09CwlJ71s3XGcng7tPkhPeMuDFClsWNc6OlQISDuoFp3biXETbh+w7i1jVZE/tXIm5So92tG+3XydRIz74fmT4n+0+RHWvNGoxlC5ywyM8VsyZNZETO1Wkmclf0h/PH/siKtcFE12mIIswsV/jpYEYwjDWHWeiEAMJ4TcDqkCEgORtW9AfDxFhjoss0RC0choCZY+HnPQGJAibeCiMc/JEVY40JLtMQHTAMATPGwp/HjBk+Ext4zDoRZoGACbbHmOEzkBtvBWeH2VgXa81IIckhzGzvCVjVFcZ3LD6d7KGD8WdyPEZPR8yiYfjCd1wHZmxHWf7Ijh0AwsQuGqqNcZ6B3DgrONv7I3u5NmbOFA+sXGqPsc4zkBPH2U4Y91HTsTxwKD73GQcO44Bxzr7Iie/P/LOeYXy0MCuWChiy3R9izHwfN8yZMh4rljhg3AiSo42JC3TE/Olu+EyE4XzIyRk/0gdxQTxm6njEL3aAG8khuxz82aeAmUtyGMYRbiMFzGyGcRvpg/ggRxBmbqcYX8QvdmTfE47w9BxXliCHw1A5hCHdqHyxPqQf6UkYsk3AkF9IZ7KPfEE+IbsZJtCR/WERMOQnAUP+Iz9SvdCfGi2Msy/I/1RXVGdiDMUz1RvV38oXMNNZTDBMnBWLA4oHkkNxRnhrywV6hixoZ4hYRvy9JG5/gqAJRE33820RNzHzex/PFQoVLL0PwGTDNciMPobMdMzf4zBxgczBD7Ltz/iBsrovn3T9Psa7ZJMU11IMSDEgxcC7EwOvlHF7vytYhQEDkplfTp4ug0whEbd3o77/eJr53bDn3fkRkfwp1ZUUA1IMSDHw9mLgVYjb/wCGW8nG9iIMKQAAAABJRU5ErkJggg==;" vertex="1" parent="WIyWlLk6GJQsqaUBKTNV-1">
          <mxGeometry x="69" y="500" width="622" height="25" as="geometry" />
        </mxCell>
      </root>
    </mxGraphModel>
  </diagram>
</mxfile>
